<svg width="61" height="70" viewBox="0 0 61 70" fill="none" xmlns="http://www.w3.org/2000/svg">
<path d="M32.4271 51.0782C22.0909 54.8082 11.2872 57.0868 0.324994 57.8489H0V59.5822C0.00478357 62.591 1.2034 64.5542 3.33268 66.6801C5.46196 68.806 8.34786 70 11.3567 70H42.5019C44.846 70 47.1672 69.538 49.3326 68.6404C51.4981 67.7428 53.4654 66.4272 55.1221 64.7688C56.7788 63.1105 58.0924 61.1418 58.9878 58.9755C59.8832 56.8091 60.3428 54.4875 60.3405 52.1434C60.4028 46.5346 57.8044 40.1043 55.0684 35.2076C48.3903 41.9752 41.4233 48.0018 32.4271 51.0782Z" fill="#F95700"/>
<path d="M42.5019 0H11.3567C8.34786 -3.80251e-06 5.46196 1.19403 3.33268 3.31992C1.2034 5.44582 0.00478357 8.32981 0 11.3387V59.9252C0 59.9252 60.3405 57.0905 60.3405 17.8205C60.3357 13.0925 58.4542 8.55987 55.1093 5.2184C51.7644 1.87693 47.2299 -2.42174e-06 42.5019 0V0ZM20.1496 36.9951V20.8538C20.1496 19.853 20.5472 18.8931 21.2548 18.1855C21.9625 17.4778 22.9223 17.0802 23.9231 17.0802H34.2688C35.8394 17.0802 37.3457 17.7042 38.4563 18.8148C39.5669 19.9254 40.1909 21.4317 40.1909 23.0023C40.1909 36.0201 20.1496 36.9951 20.1496 36.9951Z" fill="#00A4CC"/>
</svg>
