<svg width="416" height="70" viewBox="0 0 416 70" fill="none" xmlns="http://www.w3.org/2000/svg">
<path d="M32.4271 51.0782C22.0909 54.8082 11.2872 57.0868 0.324994 57.8489H0V59.5822C0.00478357 62.591 1.2034 64.5542 3.33268 66.6801C5.46196 68.806 8.34786 70 11.3567 70H42.5019C44.846 70 47.1672 69.538 49.3326 68.6404C51.4981 67.7428 53.4654 66.4272 55.1221 64.7688C56.7788 63.1105 58.0924 61.1418 58.9878 58.9755C59.8832 56.8091 60.3428 54.4875 60.3405 52.1434C60.4028 46.5346 57.8044 40.1043 55.0684 35.2076C48.3904 41.9752 41.4233 48.0018 32.4271 51.0782Z" fill="#F95700"/>
<path d="M42.5019 0H11.3567C8.34786 -3.80251e-06 5.46196 1.19403 3.33268 3.31992C1.2034 5.44582 0.00478357 8.32981 0 11.3387V59.9252C0 59.9252 60.3405 57.0905 60.3405 17.8205C60.3357 13.0925 58.4542 8.55987 55.1093 5.2184C51.7645 1.87693 47.2299 -2.42174e-06 42.5019 0ZM20.1496 36.9951V20.8538C20.1496 19.853 20.5472 18.8931 21.2548 18.1855C21.9625 17.4778 22.9223 17.0802 23.9231 17.0802H34.2688C35.8394 17.0802 37.3457 17.7042 38.4563 18.8148C39.5669 19.9254 40.1909 21.4317 40.1909 23.0023C40.1909 36.0201 20.1496 36.9951 20.1496 36.9951Z" fill="#00A4CC"/>
<path d="M108.892 37.1C108.892 29.05 103.342 22.8 95.6916 22.8C92.3416 22.8 89.4416 24.25 87.6416 26.85V12.95H79.2416V50.7H87.6416V47.35C89.4416 49.95 92.3416 51.4 95.6916 51.4C103.342 51.4 108.892 45.15 108.892 37.1ZM100.892 37.1C100.892 41.15 98.2416 44.15 94.2916 44.15C90.3416 44.15 87.6916 41.15 87.6916 37.1C87.6916 33.05 90.3416 30.05 94.2916 30.05C98.2416 30.05 100.892 33.05 100.892 37.1ZM140.964 39.8C141.064 38.9 141.114 37.8 141.114 36.55C141.114 28.4 135.114 22.8 126.914 22.8C118.864 22.7 112.564 28.95 112.714 37.1C112.714 45.35 118.964 51.4 127.914 51.4C133.164 51.4 138.014 49.1 140.414 45.35L133.964 41.4C132.814 43.2 130.464 44.35 127.914 44.35C124.514 44.35 121.814 42.85 120.864 39.8H140.964ZM120.864 34.35C121.714 31.3 124.114 29.65 126.964 29.65C130.314 29.65 132.664 31.55 133.014 34.35H120.864ZM166.142 23.5V26.85C164.342 24.25 161.442 22.8 158.092 22.8C150.442 22.8 144.892 29.05 144.892 37.1C144.892 45.15 150.442 51.4 158.092 51.4C161.442 51.4 164.342 49.95 166.142 47.35V50.7H174.542V23.5H166.142ZM166.092 37.1C166.092 41.15 163.442 44.15 159.492 44.15C155.542 44.15 152.892 41.15 152.892 37.1C152.892 33.05 155.542 30.05 159.492 30.05C163.442 30.05 166.092 33.05 166.092 37.1ZM178.365 44.8C179.415 46.6 181.065 48.15 183.365 49.45C185.715 50.75 188.415 51.4 191.515 51.4C199.015 51.4 204.515 47.95 204.515 42.6C204.515 38.4 201.665 35.85 196.015 34.6L192.465 33.8C188.515 32.95 187.615 32.35 187.615 31.15C187.615 29.95 189.215 29.2 191.765 29.2C194.415 29.2 197.115 30.55 198.165 32.35L204.315 28.9C202.315 25.5 197.565 22.8 191.965 22.8C184.815 22.8 179.765 26.25 179.765 31.6C179.765 35.75 182.615 38.25 188.265 39.5L191.815 40.3C195.765 41.15 196.665 41.7 196.665 43.05C196.665 44.25 194.715 45 191.715 45C188.365 45 185.765 43.35 184.565 41.3L178.365 44.8ZM229.033 23.5V26.85C227.233 24.25 224.333 22.8 220.983 22.8C213.333 22.8 207.783 29.05 207.783 37.1C207.783 45.15 213.333 51.4 220.983 51.4C224.333 51.4 227.233 49.95 229.033 47.35V50.7H237.433V23.5H229.033ZM228.983 37.1C228.983 41.15 226.333 44.15 222.383 44.15C218.433 44.15 215.783 41.15 215.783 37.1C215.783 33.05 218.433 30.05 222.383 30.05C226.333 30.05 228.983 33.05 228.983 37.1Z" fill="#00A4CC"/>
<path d="M243.192 46.4C243.192 49.35 245.442 51.5 248.492 51.5C251.542 51.5 253.792 49.35 253.792 46.4C253.792 43.45 251.542 41.3 248.492 41.3C245.442 41.3 243.192 43.45 243.192 46.4ZM256.548 44.8C257.598 46.6 259.248 48.15 261.548 49.45C263.898 50.75 266.598 51.4 269.698 51.4C277.198 51.4 282.698 47.95 282.698 42.6C282.698 38.4 279.848 35.85 274.198 34.6L270.648 33.8C266.698 32.95 265.798 32.35 265.798 31.15C265.798 29.95 267.398 29.2 269.948 29.2C272.598 29.2 275.298 30.55 276.348 32.35L282.498 28.9C280.498 25.5 275.748 22.8 270.148 22.8C262.998 22.8 257.948 26.25 257.948 31.6C257.948 35.75 260.798 38.25 266.448 39.5L269.998 40.3C273.948 41.15 274.848 41.7 274.848 43.05C274.848 44.25 272.898 45 269.898 45C266.548 45 263.948 43.35 262.748 41.3L256.548 44.8ZM316.616 37.1C316.616 29.05 311.066 22.8 303.416 22.8C300.066 22.8 297.166 24.25 295.366 26.85V23.5H286.966V61.25H295.366V47.35C297.166 49.95 300.066 51.4 303.416 51.4C311.066 51.4 316.616 45.15 316.616 37.1ZM308.616 37.1C308.616 41.15 305.966 44.15 302.016 44.15C298.066 44.15 295.416 41.15 295.416 37.1C295.416 33.05 298.066 30.05 302.016 30.05C305.966 30.05 308.616 33.05 308.616 37.1ZM341.689 23.5V26.85C339.889 24.25 336.989 22.8 333.639 22.8C325.989 22.8 320.439 29.05 320.439 37.1C320.439 45.15 325.989 51.4 333.639 51.4C336.989 51.4 339.889 49.95 341.689 47.35V50.7H350.089V23.5H341.689ZM341.639 37.1C341.639 41.15 338.989 44.15 335.039 44.15C331.089 44.15 328.439 41.15 328.439 37.1C328.439 33.05 331.089 30.05 335.039 30.05C338.989 30.05 341.639 33.05 341.639 37.1ZM354.911 37.1C354.761 45.15 361.211 51.55 369.511 51.4C374.861 51.4 379.361 48.95 381.911 44.95L375.011 41.15C373.811 42.95 371.911 44.05 369.511 44.05C365.561 44.05 362.911 41.15 362.911 37.1C362.911 33.05 365.561 30.15 369.511 30.15C371.911 30.15 373.811 31.25 375.011 33.05L381.911 29.25C379.361 25.25 374.861 22.8 369.511 22.8C361.211 22.65 354.761 29.05 354.911 37.1ZM412.654 39.8C412.754 38.9 412.804 37.8 412.804 36.55C412.804 28.4 406.804 22.8 398.604 22.8C390.554 22.7 384.254 28.95 384.404 37.1C384.404 45.35 390.654 51.4 399.604 51.4C404.854 51.4 409.704 49.1 412.104 45.35L405.654 41.4C404.504 43.2 402.154 44.35 399.604 44.35C396.204 44.35 393.504 42.85 392.554 39.8H412.654ZM392.554 34.35C393.404 31.3 395.804 29.65 398.654 29.65C402.004 29.65 404.354 31.55 404.704 34.35H392.554Z" fill="#F95700"/>
</svg>
